<?xml version="1.0" standalone="no"?>
<!DOCTYPE svg PUBLIC "-//W3C//DTD SVG 20010904//EN"
 "http://www.w3.org/TR/2001/REC-SVG-20010904/DTD/svg10.dtd">
<svg version="1.0" xmlns="http://www.w3.org/2000/svg"
 width="2500.000000pt" height="432.000000pt" viewBox="0 0 2500.000000 432.000000"
 preserveAspectRatio="xMidYMid meet">
<metadata>
Created by potrace 1.16, written by Peter Selinger 2001-2019
</metadata>
<g transform="translate(0.000000,432.000000) scale(0.100000,-0.100000)"
fill="#000000" stroke="none">
<path d="M15550 4303 c-598 -19 -951 -83 -1858 -337 -709 -199 -1035 -270
-1397 -305 -394 -39 -1076 -14 -1675 60 -505 62 -964 146 -1666 303 -532 119
-845 157 -1304 157 -377 1 -625 -20 -969 -82 -405 -73 -738 -173 -1158 -347
-278 -116 -951 -297 -1326 -357 -317 -50 -658 -68 -1052 -55 -784 27 -1466
124 -2505 355 -255 57 -477 101 -597 120 l-43 7 0 -1911 0 -1911 12500 0
12500 0 0 2149 0 2148 -97 7 c-125 8 -643 -10 -849 -29 -381 -37 -696 -105
-1423 -310 -965 -271 -1264 -321 -1916 -319 -512 2 -607 11 -922 83 -433 100
-696 153 -1373 276 -847 155 -1352 226 -1904 270 -199 16 -709 36 -821 33 -33
-1 -98 -3 -145 -5z"/>
</g>
</svg>
